<mxfile host="app.diagrams.net" modified="2023-09-15T13:16:51.191Z" agent="Mozilla/5.0 (Windows NT 10.0; Win64; x64) AppleWebKit/537.36 (KHTML, like Gecko) Chrome/116.0.0.0 Safari/537.36" etag="DocBMU6mevB3Re0hT4IK" version="21.7.5" type="device">
  <diagram name="Trang-1" id="rMzL3UFabWsADVxy4FzP">
    <mxGraphModel dx="1614" dy="939" grid="1" gridSize="10" guides="1" tooltips="1" connect="1" arrows="1" fold="1" page="1" pageScale="1" pageWidth="827" pageHeight="1169" math="0" shadow="0">
      <root>
        <mxCell id="0" />
        <mxCell id="1" parent="0" />
        <mxCell id="uBKHjGsXj6OErML4Wmsb-11" style="edgeStyle=orthogonalEdgeStyle;rounded=0;orthogonalLoop=1;jettySize=auto;html=1;exitX=0.5;exitY=1;exitDx=0;exitDy=0;exitPerimeter=0;entryX=0.5;entryY=0;entryDx=0;entryDy=0;" edge="1" parent="1" source="uBKHjGsXj6OErML4Wmsb-3" target="uBKHjGsXj6OErML4Wmsb-5">
          <mxGeometry relative="1" as="geometry" />
        </mxCell>
        <mxCell id="uBKHjGsXj6OErML4Wmsb-3" value="Начало" style="strokeWidth=2;html=1;shape=mxgraph.flowchart.terminator;whiteSpace=wrap;fontSize=14;" vertex="1" parent="1">
          <mxGeometry x="364" y="20" width="136" height="60" as="geometry" />
        </mxCell>
        <mxCell id="uBKHjGsXj6OErML4Wmsb-4" value="Конец" style="strokeWidth=2;html=1;shape=mxgraph.flowchart.terminator;whiteSpace=wrap;fontSize=14;" vertex="1" parent="1">
          <mxGeometry x="346" y="770" width="136" height="60" as="geometry" />
        </mxCell>
        <mxCell id="uBKHjGsXj6OErML4Wmsb-31" style="edgeStyle=orthogonalEdgeStyle;rounded=0;orthogonalLoop=1;jettySize=auto;html=1;exitX=0.5;exitY=1;exitDx=0;exitDy=0;" edge="1" parent="1" source="uBKHjGsXj6OErML4Wmsb-5" target="uBKHjGsXj6OErML4Wmsb-30">
          <mxGeometry relative="1" as="geometry" />
        </mxCell>
        <mxCell id="uBKHjGsXj6OErML4Wmsb-5" value="Инициализировать интерфейс" style="rounded=0;whiteSpace=wrap;html=1;fontSize=14;" vertex="1" parent="1">
          <mxGeometry x="363" y="120" width="138" height="60" as="geometry" />
        </mxCell>
        <mxCell id="uBKHjGsXj6OErML4Wmsb-35" style="edgeStyle=orthogonalEdgeStyle;rounded=0;orthogonalLoop=1;jettySize=auto;html=1;exitX=0.5;exitY=1;exitDx=0;exitDy=0;entryX=0.5;entryY=1;entryDx=0;entryDy=0;entryPerimeter=0;" edge="1" parent="1" source="uBKHjGsXj6OErML4Wmsb-8" target="uBKHjGsXj6OErML4Wmsb-33">
          <mxGeometry relative="1" as="geometry" />
        </mxCell>
        <mxCell id="uBKHjGsXj6OErML4Wmsb-8" value="&amp;nbsp;Зеленый свет для машин" style="rounded=0;whiteSpace=wrap;html=1;fontSize=14;" vertex="1" parent="1">
          <mxGeometry x="488" y="510" width="120" height="60" as="geometry" />
        </mxCell>
        <mxCell id="uBKHjGsXj6OErML4Wmsb-9" value="&lt;font style=&quot;font-size: 14px;&quot;&gt;&amp;nbsp;Зеленый свет для пешеходов&lt;/font&gt;" style="rounded=0;whiteSpace=wrap;html=1;fontSize=14;" vertex="1" parent="1">
          <mxGeometry x="160" y="510" width="120" height="60" as="geometry" />
        </mxCell>
        <mxCell id="uBKHjGsXj6OErML4Wmsb-16" style="edgeStyle=orthogonalEdgeStyle;rounded=0;orthogonalLoop=1;jettySize=auto;html=1;exitX=1;exitY=0.5;exitDx=0;exitDy=0;" edge="1" parent="1" source="uBKHjGsXj6OErML4Wmsb-14" target="uBKHjGsXj6OErML4Wmsb-8">
          <mxGeometry relative="1" as="geometry" />
        </mxCell>
        <mxCell id="uBKHjGsXj6OErML4Wmsb-24" value="Да" style="edgeLabel;html=1;align=center;verticalAlign=middle;resizable=0;points=[];" vertex="1" connectable="0" parent="uBKHjGsXj6OErML4Wmsb-16">
          <mxGeometry x="-0.5931" y="1" relative="1" as="geometry">
            <mxPoint as="offset" />
          </mxGeometry>
        </mxCell>
        <mxCell id="uBKHjGsXj6OErML4Wmsb-19" style="edgeStyle=orthogonalEdgeStyle;rounded=0;orthogonalLoop=1;jettySize=auto;html=1;exitX=0;exitY=0.5;exitDx=0;exitDy=0;entryX=0.5;entryY=0;entryDx=0;entryDy=0;" edge="1" parent="1" source="uBKHjGsXj6OErML4Wmsb-14" target="uBKHjGsXj6OErML4Wmsb-18">
          <mxGeometry relative="1" as="geometry" />
        </mxCell>
        <mxCell id="uBKHjGsXj6OErML4Wmsb-25" value="Нет" style="edgeLabel;html=1;align=center;verticalAlign=middle;resizable=0;points=[];" vertex="1" connectable="0" parent="uBKHjGsXj6OErML4Wmsb-19">
          <mxGeometry x="-0.1935" y="-2" relative="1" as="geometry">
            <mxPoint as="offset" />
          </mxGeometry>
        </mxCell>
        <mxCell id="uBKHjGsXj6OErML4Wmsb-14" value="Есть машины?" style="rhombus;whiteSpace=wrap;html=1;" vertex="1" parent="1">
          <mxGeometry x="376" y="330" width="112" height="80" as="geometry" />
        </mxCell>
        <mxCell id="uBKHjGsXj6OErML4Wmsb-20" style="edgeStyle=orthogonalEdgeStyle;rounded=0;orthogonalLoop=1;jettySize=auto;html=1;exitX=1;exitY=0.5;exitDx=0;exitDy=0;entryX=0.5;entryY=0;entryDx=0;entryDy=0;" edge="1" parent="1" source="uBKHjGsXj6OErML4Wmsb-18" target="uBKHjGsXj6OErML4Wmsb-8">
          <mxGeometry relative="1" as="geometry" />
        </mxCell>
        <mxCell id="uBKHjGsXj6OErML4Wmsb-21" style="edgeStyle=orthogonalEdgeStyle;rounded=0;orthogonalLoop=1;jettySize=auto;html=1;exitX=0;exitY=0.5;exitDx=0;exitDy=0;" edge="1" parent="1" source="uBKHjGsXj6OErML4Wmsb-18" target="uBKHjGsXj6OErML4Wmsb-9">
          <mxGeometry relative="1" as="geometry" />
        </mxCell>
        <mxCell id="uBKHjGsXj6OErML4Wmsb-27" value="Да" style="edgeLabel;html=1;align=center;verticalAlign=middle;resizable=0;points=[];" vertex="1" connectable="0" parent="uBKHjGsXj6OErML4Wmsb-21">
          <mxGeometry x="-0.595" y="1" relative="1" as="geometry">
            <mxPoint y="-8" as="offset" />
          </mxGeometry>
        </mxCell>
        <mxCell id="uBKHjGsXj6OErML4Wmsb-18" value="Есть пешеходы?" style="rhombus;whiteSpace=wrap;html=1;" vertex="1" parent="1">
          <mxGeometry x="243" y="420" width="120" height="80" as="geometry" />
        </mxCell>
        <mxCell id="uBKHjGsXj6OErML4Wmsb-26" value="Нет" style="text;html=1;align=center;verticalAlign=middle;resizable=0;points=[];autosize=1;strokeColor=none;fillColor=none;" vertex="1" parent="1">
          <mxGeometry x="410" y="438" width="40" height="30" as="geometry" />
        </mxCell>
        <mxCell id="uBKHjGsXj6OErML4Wmsb-32" style="edgeStyle=orthogonalEdgeStyle;rounded=0;orthogonalLoop=1;jettySize=auto;html=1;exitX=0.5;exitY=1;exitDx=0;exitDy=0;exitPerimeter=0;entryX=0.5;entryY=0;entryDx=0;entryDy=0;" edge="1" parent="1" source="uBKHjGsXj6OErML4Wmsb-30" target="uBKHjGsXj6OErML4Wmsb-14">
          <mxGeometry relative="1" as="geometry" />
        </mxCell>
        <mxCell id="uBKHjGsXj6OErML4Wmsb-30" value="Цикл до конца программы" style="strokeWidth=2;html=1;shape=mxgraph.flowchart.loop_limit;whiteSpace=wrap;" vertex="1" parent="1">
          <mxGeometry x="382" y="220" width="100" height="60" as="geometry" />
        </mxCell>
        <mxCell id="uBKHjGsXj6OErML4Wmsb-34" value="" style="edgeStyle=orthogonalEdgeStyle;rounded=0;orthogonalLoop=1;jettySize=auto;html=1;exitX=0.5;exitY=1;exitDx=0;exitDy=0;" edge="1" parent="1" source="uBKHjGsXj6OErML4Wmsb-9" target="uBKHjGsXj6OErML4Wmsb-33">
          <mxGeometry relative="1" as="geometry">
            <mxPoint x="190" y="580" as="sourcePoint" />
            <mxPoint x="414" y="870" as="targetPoint" />
          </mxGeometry>
        </mxCell>
        <mxCell id="uBKHjGsXj6OErML4Wmsb-36" style="edgeStyle=orthogonalEdgeStyle;rounded=0;orthogonalLoop=1;jettySize=auto;html=1;exitX=0.5;exitY=0;exitDx=0;exitDy=0;exitPerimeter=0;entryX=0.5;entryY=0;entryDx=0;entryDy=0;entryPerimeter=0;" edge="1" parent="1" source="uBKHjGsXj6OErML4Wmsb-33" target="uBKHjGsXj6OErML4Wmsb-4">
          <mxGeometry relative="1" as="geometry" />
        </mxCell>
        <mxCell id="uBKHjGsXj6OErML4Wmsb-33" value="Конец цикла" style="strokeWidth=2;html=1;shape=mxgraph.flowchart.loop_limit;whiteSpace=wrap;direction=west;" vertex="1" parent="1">
          <mxGeometry x="364" y="680" width="100" height="60" as="geometry" />
        </mxCell>
      </root>
    </mxGraphModel>
  </diagram>
</mxfile>
